# xmcd
#
# Track frame offsets: 
#        150
#        18132
#        30992
#        44946
#        57818
#        74239
#        86421
#        101325
#        112534
#
# Disc length: 1768 seconds
#
# Revision: 0
# Processed by: cddbd v1.5.2PL0 Copyright (c) Steve Scherf et al.
# Submitted via: ExactAudioCopy v0.95b3
#
DISCID=6906e609
DTITLE=Rockpile  - Live 1978 - FLAC
DYEAR=1900
DGENRE=
TTITLE0=Down Down Down
TTITLE1=So It Goes
TTITLE2=I Knew The Bride
TTITLE3=Deborah
TTITLE4=I Love The Sound
TTITLE5=No More Mr. Nice Guy
TTITLE6=Trouble Bouys
TTITLE7=Never Been In Love
TTITLE8=So Fine
EXTD=
EXTT0=
EXTT1=
EXTT2=
EXTT3=
EXTT4=
EXTT5=
EXTT6=
EXTT7=
EXTT8=
PLAYORDER=
